# xmcd
# Copyright (C) 1995-1998 Ti Kan
#
# Track frame offsets:
#       150
#       15714
#       33879
#       53405
#       67891
#       84858
#       102149
#       122082
#       140728
#       161841
#       177380
#       194184
#
# Disc length: 2846 seconds
#
# Revision: 2
# Processed by: cddbd v1.5.2PL0 Copyright (c) Steve Scherf et al.
# Submitted via: CD-Transfer v1.0
#
DISCID=9d0b1c0c
DTITLE=Lockstoff - Yauu!
DYEAR=2007
DGENRE=
TTITLE0=Schneller Höcher Wiiter
TTITLE1=Schlaraffeland
TTITLE2=I Glaub` A Dee
TTITLE3=Ständig Unterwäggs
TTITLE4=I Hebe Ab
TTITLE5=Tornado
TTITLE6=Tv-Star
TTITLE7=Superman
TTITLE8=Schüttelchogle
TTITLE9=Stenkfuule Siech
TTITLE10=Haue Ab Vo Do
TTITLE11=Tüfethal
EXTD=
EXTT0=
EXTT1=
EXTT2=
EXTT3=
EXTT4=
EXTT5=
EXTT6=
EXTT7=
EXTT8=
EXTT9=
EXTT10=
EXTT11=
PLAYORDER=
